REM DIRINDEX 1\2\6,1\2\7,1\2\8,1\3\9,1\3\10,1\3\11,1\4\12,1\4\13,1\4\14,1\5\15,1\5\16,1\5\17,1\5\18
REM DIRNAME folder01,folder02,folder03,folder04,folder05,folder06,folder07,folder08,folder09,folder10,folder11,folder12,folder13,folder14,folder15,folder16,folder17,folder18
TITLE ""
FILE "2Q_j_1180-1193.mp3" MP3
  TRACK 01 AUDIO
    TITLE "2:cjc019_0001"
    INDEX 01 00:00:00
  TRACK 02 AUDIO
    TITLE "0:"
    INDEX 01 00:06:16
  TRACK 03 AUDIO
    TITLE "6:cjc019_0002"
    INDEX 01 00:07:23
  TRACK 04 AUDIO
    TITLE "0:"
    INDEX 01 00:08:46
  TRACK 05 AUDIO
    TITLE "7:cjc019_0003"
    INDEX 01 00:09:24
  TRACK 06 AUDIO
    TITLE "0:"
    INDEX 01 00:11:27
  TRACK 07 AUDIO
    TITLE "8:cjc019_0004"
    INDEX 01 00:12:07
  TRACK 08 AUDIO
    TITLE "0:"
    INDEX 01 00:15:36
  TRACK 09 AUDIO
    TITLE "6:cjc019_0005"
    INDEX 01 00:16:16
  TRACK 10 AUDIO
    TITLE "0:"
    INDEX 01 00:17:31
  TRACK 11 AUDIO
    TITLE "7:cjc019_0006"
    INDEX 01 00:18:07
  TRACK 12 AUDIO
    TITLE "0:"
    INDEX 01 00:20:26
  TRACK 13 AUDIO
    TITLE "8:cjc019_0007"
    INDEX 01 00:20:71
  TRACK 14 AUDIO
    TITLE "0:"
    INDEX 01 00:26:09
  TRACK 15 AUDIO
    TITLE "6:cjc019_0008"
    INDEX 01 00:26:60
  TRACK 16 AUDIO
    TITLE "0:"
    INDEX 01 00:28:06
  TRACK 17 AUDIO
    TITLE "7:cjc019_0009"
    INDEX 01 00:28:66
  TRACK 18 AUDIO
    TITLE "0:"
    INDEX 01 00:30:20
  TRACK 19 AUDIO
    TITLE "8:cjc019_0010"
    INDEX 01 00:31:00
  TRACK 20 AUDIO
    TITLE "0:"
    INDEX 01 00:34:57
  TRACK 21 AUDIO
    TITLE "6:cjc019_0011"
    INDEX 01 00:35:39
  TRACK 22 AUDIO
    TITLE "0:"
    INDEX 01 00:36:48
  TRACK 23 AUDIO
    TITLE "7:cjc019_0012"
    INDEX 01 00:37:32
  TRACK 24 AUDIO
    TITLE "0:"
    INDEX 01 00:41:20
  TRACK 25 AUDIO
    TITLE "8:cjc019_0013"
    INDEX 01 00:41:73
  TRACK 26 AUDIO
    TITLE "0:"
    INDEX 01 00:45:71
  TRACK 27 AUDIO
    TITLE "6:cjc019_0014"
    INDEX 01 00:46:53
  TRACK 28 AUDIO
    TITLE "0:"
    INDEX 01 00:47:54
  TRACK 29 AUDIO
    TITLE "7:cjc019_0015"
    INDEX 01 00:48:57
  TRACK 30 AUDIO
    TITLE "0:"
    INDEX 01 00:50:42
  TRACK 31 AUDIO
    TITLE "8:cjc019_0016"
    INDEX 01 00:51:20
  TRACK 32 AUDIO
    TITLE "0:"
    INDEX 01 00:57:21
  TRACK 33 AUDIO
    TITLE "6:cjc019_0017"
    INDEX 01 00:58:05
  TRACK 34 AUDIO
    TITLE "0:"
    INDEX 01 00:59:38
  TRACK 35 AUDIO
    TITLE "7:cjc019_0018"
    INDEX 01 01:00:19
  TRACK 36 AUDIO
    TITLE "0:"
    INDEX 01 01:04:31
  TRACK 37 AUDIO
    TITLE "8:cjc019_0019"
    INDEX 01 01:05:11
  TRACK 38 AUDIO
    TITLE "0:"
    INDEX 01 01:08:68
  TRACK 39 AUDIO
    TITLE "6:cjc019_0020"
    INDEX 01 01:09:50
  TRACK 40 AUDIO
    TITLE "0:"
    INDEX 01 01:10:69
  TRACK 41 AUDIO
    TITLE "7:cjc019_0021"
    INDEX 01 01:11:49
  TRACK 42 AUDIO
    TITLE "0:"
    INDEX 01 01:15:74
  TRACK 43 AUDIO
    TITLE "8:cjc019_0022"
    INDEX 01 01:16:48
  TRACK 44 AUDIO
    TITLE "0:"
    INDEX 01 01:20:55
  TRACK 45 AUDIO
    TITLE "6:cjc019_0023"
    INDEX 01 01:21:37
  TRACK 46 AUDIO
    TITLE "0:"
    INDEX 01 01:23:05
  TRACK 47 AUDIO
    TITLE "7:cjc019_0024"
    INDEX 01 01:23:60
  TRACK 48 AUDIO
    TITLE "0:"
    INDEX 01 01:25:70
  TRACK 49 AUDIO
    TITLE "8:cjc019_0025"
    INDEX 01 01:26:52
  TRACK 50 AUDIO
    TITLE "0:"
    INDEX 01 01:30:30
  TRACK 51 AUDIO
    TITLE "6:cjc019_0026"
    INDEX 01 01:31:06
  TRACK 52 AUDIO
    TITLE "0:"
    INDEX 01 01:32:23
  TRACK 53 AUDIO
    TITLE "7:cjc019_0027"
    INDEX 01 01:33:09
  TRACK 54 AUDIO
    TITLE "0:"
    INDEX 01 01:34:65
  TRACK 55 AUDIO
    TITLE "8:cjc019_0028"
    INDEX 01 01:35:41
  TRACK 56 AUDIO
    TITLE "0:"
    INDEX 01 01:38:45
  TRACK 57 AUDIO
    TITLE "6:cjc019_0029"
    INDEX 01 01:39:23
  TRACK 58 AUDIO
    TITLE "0:"
    INDEX 01 01:40:50
  TRACK 59 AUDIO
    TITLE "7:cjc019_0030"
    INDEX 01 01:41:24
  TRACK 60 AUDIO
    TITLE "0:"
    INDEX 01 01:42:30
  TRACK 61 AUDIO
    TITLE "8:cjc019_0031"
    INDEX 01 01:43:02
  TRACK 62 AUDIO
    TITLE "0:"
    INDEX 01 01:46:39
  TRACK 63 AUDIO
    TITLE "6:cjc019_0032"
    INDEX 01 01:47:19
  TRACK 64 AUDIO
    TITLE "0:"
    INDEX 01 01:48:50
  TRACK 65 AUDIO
    TITLE "7:cjc019_0033"
    INDEX 01 01:49:28
  TRACK 66 AUDIO
    TITLE "0:"
    INDEX 01 01:50:68
  TRACK 67 AUDIO
    TITLE "8:cjc019_0034"
    INDEX 01 01:51:50
  TRACK 68 AUDIO
    TITLE "0:"
    INDEX 01 01:54:29
  TRACK 69 AUDIO
    TITLE "6:cjc019_0035"
    INDEX 01 01:55:13
  TRACK 70 AUDIO
    TITLE "0:"
    INDEX 01 01:56:41
  TRACK 71 AUDIO
    TITLE "7:cjc019_0036"
    INDEX 01 01:57:21
  TRACK 72 AUDIO
    TITLE "0:"
    INDEX 01 02:00:49
  TRACK 73 AUDIO
    TITLE "8:cjc019_0037"
    INDEX 01 02:01:29
  TRACK 74 AUDIO
    TITLE "0:"
    INDEX 01 02:07:29
  TRACK 75 AUDIO
    TITLE "6:cjc019_0038"
    INDEX 01 02:08:09
  TRACK 76 AUDIO
    TITLE "0:"
    INDEX 01 02:09:30
  TRACK 77 AUDIO
    TITLE "7:cjc019_0039"
    INDEX 01 02:10:14
  TRACK 78 AUDIO
    TITLE "0:"
    INDEX 01 02:12:23
  TRACK 79 AUDIO
    TITLE "8:cjc019_0040"
    INDEX 01 02:12:70
  TRACK 80 AUDIO
    TITLE "0:"
    INDEX 01 02:16:15
  TRACK 81 AUDIO
    TITLE "6:cjc019_0041"
    INDEX 01 02:16:68
  TRACK 82 AUDIO
    TITLE "0:"
    INDEX 01 02:18:12
  TRACK 83 AUDIO
    TITLE "7:cjc019_0042"
    INDEX 01 02:18:65
  TRACK 84 AUDIO
    TITLE "0:"
    INDEX 01 02:21:30
  TRACK 85 AUDIO
    TITLE "8:cjc019_0043"
    INDEX 01 02:22:11
  TRACK 86 AUDIO
    TITLE "0:"
    INDEX 01 02:26:01
